<?xml version="1.0" encoding="UTF-8" standalone="no"?>
<svg width="47px" height="87px" viewBox="0 0 47 87" version="1.1" xmlns="http://www.w3.org/2000/svg" xmlns:xlink="http://www.w3.org/1999/xlink">
    <!-- Generator: Sketch 3.8.1 (29687) - http://www.bohemiancoding.com/sketch -->
    <title>Group 2</title>
    <desc>Created with Sketch.</desc>
    <defs></defs>
    <g id="Page-1" stroke="none" stroke-width="1" fill="none" fill-rule="evenodd">
        <g id="Group-2" fill="#FFFFFF">
            <path d="M24.979,30.581 C25.056,30.477 25.137,30.367 25.214,30.262 C25.553,29.803 25.877,29.359 26.205,28.911 C26.435,28.596 26.676,28.274 26.902,27.963 C27.314,27.391 27.715,26.819 28.116,26.245 C28.247,26.057 28.382,25.875 28.512,25.685 C28.613,25.537 28.701,25.385 28.796,25.233 C29.227,24.561 29.603,23.87 29.921,23.165 C30.137,22.69 30.328,22.208 30.494,21.722 C30.886,20.572 31.14,19.395 31.253,18.21 C31.581,14.761 30.73,11.247 28.698,8.129 C28.631,8.028 28.572,7.922 28.503,7.821 C27.737,6.699 26.932,5.595 26.131,4.508 C25.876,4.16 25.617,3.806 25.364,3.465 C25.141,3.165 24.921,2.864 24.699,2.564 C24.49,2.282 24.281,1.999 24.075,1.717 C23.971,1.573 23.853,1.439 23.704,1.278 L22.96,0.443 L22.629,0.903 L22.464,1.131 C22.287,1.377 22.11,1.614 21.934,1.858 C21.566,2.361 21.202,2.863 20.836,3.358 C20.794,3.416 20.751,3.476 20.708,3.532 C20.478,3.846 20.246,4.168 20.013,4.485 C19.602,5.047 19.198,5.609 18.793,6.182 C18.56,6.512 18.336,6.847 18.109,7.18 C17.86,7.543 17.601,7.901 17.361,8.269 C17.232,8.468 17.132,8.672 17.012,8.872 C16.785,9.253 16.557,9.634 16.366,10.021 C15.942,10.868 15.622,11.731 15.37,12.604 C15.18,13.259 15.031,13.919 14.937,14.588 C14.591,17.03 14.864,19.554 15.796,22.145 C16.302,23.556 17.03,24.829 17.839,26.037 C18.302,26.729 18.789,27.399 19.287,28.056 C19.511,28.351 19.733,28.649 19.956,28.94 C20.577,29.749 21.199,30.589 21.795,31.448 C22.023,31.774 22.258,32.094 22.469,32.428 L23.003,33.273 L23.147,33.076 L23.591,32.466 C23.824,32.146 24.049,31.841 24.28,31.528 C24.515,31.212 24.748,30.893 24.979,30.581 L24.979,30.581 Z M27.384,8.586 C29.554,11.766 30.356,15.425 29.793,18.956 L27.041,8.102 C27.153,8.264 27.272,8.424 27.384,8.586 L27.384,8.586 Z M24.275,4.271 C24.708,4.855 25.146,5.453 25.584,6.051 L29.344,20.889 C29.086,21.729 28.74,22.553 28.321,23.356 L23.068,2.633 C23.467,3.182 23.871,3.726 24.275,4.271 L24.275,4.271 Z M21.929,4.164 C22.075,3.965 22.221,3.766 22.368,3.566 L27.669,24.483 C27.576,24.629 27.49,24.777 27.392,24.921 C27.091,25.362 26.775,25.798 26.464,26.235 L21.143,5.241 C21.406,4.882 21.658,4.529 21.929,4.164 L21.929,4.164 Z M20.447,6.193 L25.774,27.208 C25.375,27.757 24.962,28.318 24.545,28.879 L19.236,7.932 C19.633,7.353 20.033,6.769 20.447,6.193 L20.447,6.193 Z M18.322,24.245 L16.187,15.825 C16.261,14.592 16.494,13.378 16.916,12.192 L20.911,27.956 C19.967,26.724 19.076,25.517 18.322,24.245 L18.322,24.245 Z M23.073,30.879 C22.838,30.534 22.584,30.219 22.338,29.885 L17.503,10.803 C17.792,10.198 18.114,9.598 18.498,9.008 C18.517,8.981 18.535,8.955 18.554,8.927 L23.85,29.825 C23.592,30.174 23.336,30.522 23.073,30.879 L23.073,30.879 Z" id="Shape"></path>
            <path d="M29.707,28.823 C29.446,29.044 29.191,29.276 28.945,29.517 C28.493,29.959 28.058,30.427 27.655,30.936 C27.415,31.24 27.182,31.558 26.959,31.886 C26.542,32.495 26.161,33.152 25.805,33.843 C25.718,34.01 25.626,34.171 25.542,34.343 C25.413,34.613 25.31,34.885 25.201,35.158 C24.825,36.114 24.568,37.078 24.408,38.049 C24.261,38.946 24.187,39.846 24.153,40.744 C24.113,41.798 24.123,42.849 24.137,43.889 C24.15,44.877 24.164,45.869 24.131,46.862 L24.122,47.135 L24.1,47.896 L24.296,47.818 L25.28,47.427 C25.421,47.374 25.522,47.333 25.623,47.283 L25.79,47.2 L26.623,46.785 L27.977,46.111 L28.809,45.696 L29,45.603 C29.425,45.391 29.849,45.174 30.274,44.962 C30.551,44.824 30.828,44.684 31.105,44.545 C31.593,44.301 32.079,44.054 32.568,43.81 C32.845,43.671 33.123,43.532 33.399,43.392 C33.887,43.149 34.375,42.904 34.861,42.657 C35.139,42.518 35.417,42.38 35.694,42.24 C36.18,41.993 36.672,41.754 37.156,41.505 C37.239,41.462 37.323,41.423 37.405,41.38 C37.604,41.279 37.782,41.145 37.975,41.033 C38.463,40.758 38.948,40.478 39.401,40.15 C39.672,39.956 39.918,39.724 40.176,39.511 C40.641,39.127 41.089,38.719 41.513,38.278 C41.763,38.019 42.009,37.754 42.245,37.473 C42.681,36.954 43.086,36.395 43.471,35.809 C43.618,35.586 43.783,35.388 43.922,35.156 C44.003,35.019 44.062,34.877 44.138,34.738 C44.57,33.957 44.924,33.165 45.186,32.36 C45.382,31.75 45.534,31.134 45.654,30.515 C45.969,28.912 46.061,27.286 46.076,25.667 C46.082,24.896 46.077,24.129 46.067,23.366 C46.061,22.877 46.058,22.386 46.055,21.894 C46.055,21.7 46.049,21.506 46.051,21.312 L46.055,20.364 L45.699,20.483 L44.953,20.732 C44.907,20.745 44.878,20.762 44.837,20.775 C44.721,20.814 44.607,20.848 44.51,20.897 C44.129,21.089 43.745,21.28 43.363,21.471 C43.087,21.608 42.809,21.747 42.532,21.886 C42.044,22.13 41.556,22.373 41.068,22.616 C41.021,22.64 40.972,22.664 40.925,22.688 C40.696,22.802 40.462,22.92 40.235,23.034 C39.752,23.276 39.26,23.522 38.772,23.765 C38.496,23.904 38.218,24.041 37.941,24.182 C37.452,24.427 36.969,24.667 36.478,24.916 C36.2,25.055 35.926,25.201 35.648,25.341 C35.162,25.589 34.676,25.84 34.19,26.092 C33.914,26.233 33.635,26.375 33.36,26.518 C32.998,26.706 32.63,26.889 32.269,27.078 C32.144,27.142 32.029,27.22 31.906,27.288 C31.631,27.444 31.356,27.603 31.093,27.778 C30.607,28.097 30.148,28.447 29.707,28.823 L29.707,28.823 Z M26.282,45.441 L25.479,42.275 C25.477,40.714 25.546,39.196 25.851,37.718 L27.638,44.766 L26.282,45.441 L26.282,45.441 Z M28.47,44.354 L26.339,35.949 C26.464,35.608 26.603,35.265 26.766,34.928 C26.972,34.498 27.192,34.09 27.419,33.695 L29.933,43.617 C29.444,43.861 28.957,44.109 28.47,44.354 L28.47,44.354 Z M30.764,43.199 L28.085,32.632 C28.475,32.061 28.889,31.529 29.332,31.042 L32.228,42.465 C31.739,42.709 31.253,42.956 30.764,43.199 L30.764,43.199 Z M44.699,22.319 C44.703,22.675 44.707,23.03 44.713,23.384 C44.728,24.522 44.735,25.64 44.697,26.74 L43.704,22.816 C44.036,22.65 44.368,22.486 44.699,22.319 L44.699,22.319 Z M41.529,23.903 C41.976,23.679 42.424,23.456 42.873,23.232 L44.459,29.496 C44.299,30.581 44.029,31.642 43.618,32.682 L41.409,23.964 C41.448,23.945 41.49,23.923 41.529,23.903 L41.529,23.903 Z M40.577,24.381 L43.009,33.982 C42.924,34.141 42.856,34.304 42.76,34.461 C42.47,34.948 42.148,35.384 41.826,35.821 L39.112,25.113 C39.602,24.869 40.092,24.622 40.577,24.381 L40.577,24.381 Z M38.281,25.529 L41.116,36.714 C40.704,37.197 40.27,37.653 39.809,38.068 L36.819,26.266 C37.309,26.017 37.792,25.774 38.281,25.529 L38.281,25.529 Z M35.99,26.691 L39.036,38.707 C38.59,39.055 38.118,39.372 37.629,39.665 L34.53,27.441 C35.017,27.19 35.502,26.94 35.99,26.691 L35.99,26.691 Z M32.899,28.279 C33.163,28.14 33.435,28.006 33.701,27.867 L36.815,40.158 C36.805,40.162 36.797,40.168 36.788,40.174 C36.311,40.418 35.83,40.653 35.354,40.895 L32.251,28.656 C32.464,28.526 32.677,28.396 32.899,28.279 L32.899,28.279 Z M34.521,41.312 C34.034,41.558 33.546,41.803 33.057,42.047 L30.077,30.288 C30.509,29.885 30.967,29.519 31.445,29.18 L34.521,41.312 L34.521,41.312 Z" id="Shape"></path>
            <path d="M21.996,40.859 C21.914,37.455 21.017,34.538 19.374,32.092 C18.715,31.109 17.944,30.194 17.036,29.371 C16.663,29.032 16.265,28.71 15.851,28.399 C15.235,27.937 14.58,27.502 13.872,27.1 C13.815,27.068 13.766,27.028 13.708,26.996 C13.404,26.828 13.09,26.676 12.786,26.51 C12.156,26.17 11.52,25.837 10.881,25.507 C10.521,25.32 10.164,25.12 9.8,24.937 C9.168,24.618 8.543,24.313 7.913,24.002 C7.557,23.826 7.199,23.648 6.843,23.472 C6.489,23.299 6.128,23.116 5.775,22.944 C5.503,22.811 5.232,22.675 4.959,22.542 C4.601,22.366 4.245,22.189 3.888,22.014 C3.34,21.744 2.79,21.477 2.245,21.204 L2,21.083 L0.928,20.548 L0.073,20.121 L0.073,21.215 C0.073,21.881 0.068,22.527 0.064,23.159 C0.063,23.322 0.063,23.475 0.062,23.637 C0.053,24.807 0.048,25.944 0.082,27.075 C0.087,27.247 0.115,27.403 0.123,27.573 C0.259,30.203 0.861,32.537 1.901,34.582 C2.347,35.46 2.856,36.295 3.464,37.063 C4.107,37.867 4.856,38.6 5.678,39.282 C6.055,39.596 6.43,39.912 6.846,40.2 C7.423,40.598 8.027,40.975 8.674,41.324 C8.716,41.346 8.756,41.367 8.798,41.388 C9.154,41.578 9.52,41.76 9.878,41.948 C10.509,42.279 11.14,42.607 11.776,42.931 C12.137,43.116 12.493,43.307 12.854,43.489 C13.485,43.806 14.11,44.111 14.74,44.423 C15.097,44.601 15.454,44.777 15.81,44.953 C16.186,45.138 16.567,45.329 16.94,45.512 C17.192,45.637 17.445,45.763 17.698,45.886 C18.055,46.064 18.411,46.24 18.768,46.418 C19.357,46.707 19.948,46.997 20.533,47.289 C20.567,47.307 20.615,47.321 20.651,47.336 C20.73,47.369 20.805,47.401 20.905,47.437 L21.687,47.717 L22.006,47.832 L22.014,44.953 C22.019,44.112 22.008,43.288 22.004,42.46 C22,41.929 22.01,41.389 21.996,40.859 L21.996,40.859 Z M1.437,27.035 C1.399,25.767 1.408,24.498 1.42,23.169 C1.421,22.949 1.422,22.726 1.423,22.502 L5.046,36.795 C2.775,34.25 1.549,30.995 1.437,27.035 L1.437,27.035 Z M6.299,38.04 L2.439,22.812 C3.065,23.124 3.694,23.434 4.324,23.741 L8.323,39.52 C7.594,39.064 6.912,38.574 6.299,38.04 L6.299,38.04 Z M9.432,40.19 L5.395,24.27 C6.019,24.575 6.651,24.892 7.281,25.204 L11.33,41.174 C10.696,40.846 10.056,40.525 9.432,40.19 L9.432,40.19 Z M12.407,41.732 L8.352,25.732 C8.989,26.05 9.615,26.379 10.248,26.707 L14.3,42.692 C13.666,42.376 13.041,42.054 12.407,41.732 L12.407,41.732 Z M15.371,43.223 L11.33,27.276 C11.904,27.579 12.488,27.87 13.051,28.182 C13.12,28.22 13.175,28.265 13.241,28.301 L17.258,44.157 C16.635,43.85 16.001,43.534 15.371,43.223 L15.371,43.223 Z M18.33,44.686 L14.356,29.006 C15.11,29.515 15.805,30.062 16.424,30.66 L20.216,45.619 C19.586,45.307 18.958,44.996 18.33,44.686 L18.33,44.686 Z M17.733,32.125 C19.573,34.503 20.557,37.428 20.64,40.89 C20.662,41.8 20.654,42.719 20.651,43.638 L17.733,32.125 L17.733,32.125 Z" id="Shape"></path>
            <path d="M21.996,60.01 C21.914,56.606 21.017,53.689 19.374,51.242 C18.715,50.259 17.944,49.345 17.036,48.52 C16.663,48.182 16.265,47.861 15.851,47.549 C15.235,47.087 14.58,46.652 13.872,46.249 C13.815,46.218 13.766,46.178 13.708,46.145 C13.404,45.977 13.09,45.826 12.786,45.66 C12.156,45.32 11.52,44.986 10.881,44.657 C10.521,44.47 10.164,44.27 9.8,44.087 C9.168,43.768 8.543,43.463 7.913,43.152 C7.557,42.976 7.199,42.797 6.843,42.622 C6.489,42.449 6.128,42.266 5.775,42.095 C5.503,41.961 5.232,41.826 4.959,41.692 C4.601,41.516 4.245,41.339 3.888,41.164 C3.34,40.894 2.79,40.627 2.245,40.354 L2,40.233 L0.928,39.698 L0.073,39.27 L0.073,40.365 C0.073,41.031 0.068,41.677 0.064,42.31 C0.063,42.473 0.063,42.626 0.062,42.788 C0.053,43.957 0.048,45.095 0.082,46.225 C0.087,46.398 0.115,46.553 0.123,46.723 C0.259,49.353 0.861,51.687 1.901,53.732 C2.347,54.61 2.856,55.445 3.464,56.212 C4.107,57.017 4.856,57.749 5.678,58.432 C6.055,58.746 6.43,59.062 6.846,59.351 C7.423,59.748 8.027,60.126 8.674,60.474 C8.716,60.496 8.756,60.516 8.798,60.537 C9.154,60.727 9.52,60.909 9.878,61.098 C10.509,61.429 11.14,61.757 11.776,62.08 C12.137,62.265 12.493,62.457 12.854,62.638 C13.485,62.955 14.11,63.26 14.74,63.573 C15.097,63.75 15.454,63.927 15.81,64.104 C16.186,64.288 16.567,64.479 16.94,64.663 C17.192,64.787 17.445,64.912 17.698,65.037 C18.055,65.215 18.411,65.391 18.768,65.567 C19.357,65.857 19.948,66.147 20.533,66.44 C20.567,66.457 20.615,66.47 20.651,66.486 C20.73,66.519 20.805,66.551 20.905,66.587 L21.687,66.867 L22.006,66.982 L22.014,64.104 C22.019,63.261 22.008,62.439 22.004,61.61 C22,61.078 22.01,60.538 21.996,60.01 L21.996,60.01 Z M1.437,46.186 C1.399,44.917 1.408,43.649 1.42,42.32 C1.421,42.1 1.422,41.877 1.423,41.652 L5.046,55.944 C2.775,53.4 1.549,50.146 1.437,46.186 L1.437,46.186 Z M6.299,57.19 L2.439,41.961 C3.065,42.273 3.694,42.583 4.324,42.89 L8.323,58.669 C7.594,58.215 6.912,57.725 6.299,57.19 L6.299,57.19 Z M9.432,59.341 L5.395,43.421 C6.019,43.725 6.651,44.042 7.281,44.354 L11.33,60.325 C10.696,59.996 10.056,59.676 9.432,59.341 L9.432,59.341 Z M12.407,60.883 L8.352,44.883 C8.989,45.201 9.615,45.53 10.248,45.858 L14.3,61.842 C13.666,61.525 13.041,61.205 12.407,60.883 L12.407,60.883 Z M15.371,62.373 L11.33,46.426 C11.904,46.729 12.488,47.021 13.051,47.333 C13.12,47.37 13.175,47.415 13.241,47.452 L17.258,63.307 C16.635,63.001 16.001,62.685 15.371,62.373 L15.371,62.373 Z M18.33,63.837 L14.356,48.156 C15.11,48.666 15.805,49.212 16.424,49.81 L20.216,64.768 C19.586,64.456 18.958,64.146 18.33,63.837 L18.33,63.837 Z M17.733,51.275 C19.573,53.654 20.557,56.579 20.64,60.041 C20.662,60.951 20.654,61.87 20.651,62.789 L17.733,51.275 L17.733,51.275 Z" id="Shape"></path>
            <path d="M24.054,67.141 L25.339,66.615 C25.414,66.586 25.46,66.563 25.518,66.538 C25.585,66.51 25.664,66.48 25.723,66.451 L26.355,66.136 L27.819,65.406 L28.629,65.003 C28.636,64.999 28.644,64.996 28.65,64.992 C29.139,64.749 29.626,64.503 30.114,64.26 C30.392,64.12 30.67,63.982 30.947,63.842 C31.398,63.616 31.849,63.389 32.301,63.163 C32.578,63.025 32.855,62.887 33.132,62.748 C33.62,62.502 34.108,62.26 34.597,62.013 C34.874,61.875 35.152,61.737 35.428,61.597 C35.916,61.353 36.405,61.111 36.892,60.865 C37.097,60.761 37.302,60.66 37.507,60.556 C37.579,60.519 37.648,60.471 37.719,60.433 C38.208,60.174 38.684,59.882 39.147,59.561 C39.415,59.375 39.678,59.18 39.937,58.973 C40.395,58.608 40.845,58.21 41.283,57.776 C41.532,57.527 41.776,57.254 42.02,56.982 C42.23,56.746 42.445,56.525 42.652,56.27 C42.876,55.997 43.083,55.72 43.278,55.441 C43.521,55.091 43.741,54.738 43.947,54.382 C44.381,53.626 44.729,52.852 45.009,52.066 C45.21,51.503 45.376,50.933 45.512,50.356 C45.845,48.943 46.005,47.496 46.067,46.039 C46.117,44.813 46.102,43.58 46.071,42.354 C46.06,41.97 46.05,41.588 46.039,41.207 L45.993,39.554 L45.417,39.772 L44.918,39.961 C44.782,40.01 44.672,40.05 44.564,40.104 L44.561,40.105 L43.098,40.833 L42.267,41.247 L41.076,41.839 C40.986,41.884 40.893,41.931 40.803,41.975 C40.529,42.111 40.246,42.251 39.971,42.39 C39.485,42.631 38.995,42.874 38.506,43.119 C38.228,43.257 37.952,43.394 37.672,43.534 C37.184,43.779 36.701,44.022 36.211,44.269 C35.933,44.41 35.657,44.553 35.38,44.693 C34.892,44.94 34.405,45.19 33.919,45.44 C33.644,45.581 33.365,45.72 33.09,45.862 C32.934,45.944 32.776,46.022 32.619,46.103 C32.281,46.279 31.964,46.476 31.644,46.669 C31.369,46.836 31.101,47.01 30.839,47.191 C30.357,47.527 29.898,47.886 29.462,48.268 C29.204,48.496 28.944,48.722 28.702,48.964 C28.279,49.39 27.89,49.845 27.519,50.318 C27.279,50.627 27.039,50.937 26.821,51.266 C26.397,51.908 26.029,52.599 25.691,53.318 C25.48,53.767 25.286,54.232 25.108,54.712 C24.997,55.009 24.879,55.301 24.783,55.61 C24.534,56.405 24.396,57.208 24.296,58.01 C24.171,59.005 24.114,59.999 24.111,60.989 C24.11,61.57 24.12,62.149 24.131,62.723 C24.149,63.818 24.168,64.951 24.11,66.07 L24.054,67.141 L24.054,67.141 Z M44.691,41.551 C44.745,43.408 44.788,45.226 44.655,46.988 L43.436,42.176 L44.691,41.551 L44.691,41.551 Z M41.676,43.051 L42.606,42.589 L44.335,49.415 C44.139,50.429 43.851,51.417 43.438,52.378 L41.14,43.318 C41.317,43.229 41.5,43.138 41.676,43.051 L41.676,43.051 Z M40.309,43.731 L42.817,53.624 C42.476,54.226 42.084,54.816 41.616,55.393 L38.844,44.46 C39.335,44.216 39.821,43.973 40.309,43.731 L40.309,43.731 Z M38.011,44.875 L40.886,56.215 C40.456,56.687 40.019,57.125 39.568,57.517 L36.55,45.614 C37.039,45.367 37.521,45.119 38.011,44.875 L38.011,44.875 Z M35.72,46.038 L38.785,58.139 C38.328,58.485 37.856,58.793 37.372,59.067 L34.258,46.784 C34.744,46.532 35.231,46.285 35.72,46.038 L35.72,46.038 Z M33.242,47.302 C33.304,47.27 33.367,47.239 33.43,47.207 L36.549,59.518 C36.063,59.764 35.574,60.005 35.086,60.251 L31.988,48.031 C32.39,47.771 32.808,47.527 33.242,47.302 L33.242,47.302 Z M31.196,48.602 L34.256,60.666 C33.767,60.911 33.279,61.156 32.791,61.401 L29.836,49.747 C30.26,49.338 30.718,48.96 31.196,48.602 L31.196,48.602 Z M29.101,50.537 L31.959,61.816 C31.508,62.043 31.057,62.27 30.604,62.496 L27.95,52.02 C28.298,51.493 28.688,51.007 29.101,50.537 L29.101,50.537 Z M27.291,53.127 L29.771,62.913 C29.284,63.155 28.797,63.402 28.307,63.645 L26.25,55.53 C26.545,54.682 26.887,53.875 27.291,53.127 L27.291,53.127 Z M25.769,57.32 L27.477,64.061 L26.012,64.79 L25.484,62.701 C25.451,60.837 25.438,59.056 25.769,57.32 L25.769,57.32 Z" id="Shape"></path>
            <path d="M21.996,79.804 C21.914,76.401 21.017,73.484 19.374,71.037 C18.715,70.055 17.944,69.14 17.036,68.316 C16.663,67.977 16.265,67.656 15.851,67.344 C15.235,66.882 14.58,66.447 13.872,66.044 C13.815,66.013 13.766,65.973 13.708,65.941 C13.404,65.772 13.09,65.621 12.786,65.455 C12.156,65.115 11.52,64.781 10.881,64.452 C10.521,64.264 10.164,64.065 9.8,63.882 C9.168,63.563 8.543,63.259 7.913,62.947 C7.557,62.771 7.199,62.592 6.843,62.418 C6.489,62.245 6.128,62.062 5.775,61.89 C5.503,61.756 5.232,61.621 4.959,61.488 C4.601,61.312 4.245,61.134 3.888,60.96 C3.34,60.69 2.79,60.423 2.245,60.15 L2,60.028 L0.928,59.494 L0.073,59.066 L0.073,60.161 C0.073,60.827 0.068,61.472 0.064,62.105 C0.063,62.267 0.063,62.42 0.062,62.583 C0.053,63.753 0.048,64.89 0.082,66.02 C0.087,66.193 0.115,66.348 0.123,66.518 C0.259,69.148 0.861,71.482 1.901,73.528 C2.347,74.405 2.856,75.24 3.464,76.007 C4.107,76.812 4.856,77.543 5.678,78.227 C6.055,78.54 6.43,78.857 6.846,79.146 C7.423,79.544 8.027,79.921 8.674,80.269 C8.716,80.291 8.756,80.311 8.798,80.332 C9.154,80.522 9.52,80.704 9.878,80.893 C10.509,81.224 11.14,81.552 11.776,81.876 C12.137,82.06 12.493,82.251 12.854,82.433 C13.485,82.75 14.11,83.055 14.74,83.368 C15.097,83.546 15.454,83.722 15.81,83.898 C16.186,84.083 16.567,84.274 16.94,84.457 C17.192,84.582 17.445,84.707 17.698,84.832 C18.055,85.01 18.411,85.186 18.768,85.362 C19.357,85.652 19.948,85.942 20.533,86.235 C20.567,86.252 20.615,86.266 20.651,86.281 C20.73,86.313 20.805,86.347 20.905,86.382 L21.687,86.662 L22.006,86.777 L22.014,83.898 C22.019,83.056 22.008,82.234 22.004,81.405 C22,80.873 22.01,80.334 21.996,79.804 L21.996,79.804 Z M1.437,65.98 C1.399,64.712 1.408,63.443 1.42,62.115 C1.421,61.894 1.422,61.671 1.423,61.447 L5.046,75.739 C2.775,73.195 1.549,69.94 1.437,65.98 L1.437,65.98 Z M6.299,76.984 L2.439,61.756 C3.065,62.068 3.694,62.378 4.324,62.685 L8.323,78.464 C7.594,78.01 6.912,77.521 6.299,76.984 L6.299,76.984 Z M9.432,79.136 L5.395,63.216 C6.019,63.52 6.651,63.838 7.281,64.149 L11.33,80.12 C10.696,79.791 10.056,79.471 9.432,79.136 L9.432,79.136 Z M12.407,80.678 L8.352,64.678 C8.989,64.995 9.615,65.325 10.248,65.653 L14.3,81.637 C13.666,81.32 13.041,80.999 12.407,80.678 L12.407,80.678 Z M15.371,82.168 L11.33,66.221 C11.904,66.525 12.488,66.816 13.051,67.128 C13.12,67.164 13.175,67.21 13.241,67.247 L17.258,83.102 C16.635,82.796 16.001,82.479 15.371,82.168 L15.371,82.168 Z M18.33,83.632 L14.356,67.951 C15.11,68.46 15.805,69.007 16.424,69.605 L20.216,84.563 C19.586,84.251 18.958,83.941 18.33,83.632 L18.33,83.632 Z M17.733,71.07 C19.573,73.449 20.557,76.374 20.64,79.836 C20.662,80.745 20.654,81.665 20.651,82.584 L17.733,71.07 L17.733,71.07 Z" id="Shape"></path>
            <path d="M46.037,60.999 L45.991,59.347 L45.415,59.565 L44.916,59.754 C44.78,59.803 44.67,59.844 44.562,59.897 L44.559,59.899 L43.096,60.627 L42.265,61.041 L41.074,61.633 C40.984,61.678 40.891,61.724 40.801,61.769 C40.527,61.906 40.244,62.046 39.969,62.184 C39.483,62.424 38.993,62.668 38.504,62.913 C38.226,63.05 37.95,63.187 37.67,63.326 C37.182,63.572 36.699,63.815 36.209,64.062 C35.931,64.203 35.655,64.345 35.378,64.486 C34.89,64.733 34.403,64.982 33.917,65.233 C33.642,65.374 33.363,65.512 33.088,65.654 C32.932,65.737 32.774,65.815 32.617,65.896 C32.279,66.072 31.962,66.269 31.642,66.462 C31.367,66.629 31.099,66.803 30.837,66.983 C30.355,67.32 29.896,67.68 29.46,68.061 C29.202,68.289 28.942,68.515 28.7,68.757 C28.277,69.183 27.888,69.638 27.517,70.111 C27.277,70.42 27.037,70.729 26.819,71.059 C26.395,71.701 26.027,72.392 25.689,73.11 C25.478,73.56 25.284,74.025 25.106,74.505 C24.995,74.802 24.877,75.094 24.781,75.403 C24.532,76.198 24.394,77.001 24.294,77.804 C24.169,78.797 24.112,79.792 24.109,80.783 C24.108,81.364 24.118,81.944 24.129,82.518 C24.147,83.612 24.166,84.745 24.108,85.864 L24.052,86.935 L25.337,86.407 C25.412,86.379 25.458,86.356 25.516,86.331 C25.583,86.303 25.662,86.272 25.721,86.244 L26.353,85.929 L27.817,85.199 L28.627,84.796 C28.634,84.792 28.642,84.789 28.648,84.785 C29.137,84.542 29.624,84.296 30.112,84.052 C30.39,83.913 30.668,83.775 30.945,83.635 C31.396,83.409 31.847,83.182 32.299,82.956 C32.576,82.818 32.853,82.68 33.13,82.54 C33.618,82.296 34.106,82.053 34.595,81.807 C34.872,81.668 35.15,81.53 35.426,81.39 C35.914,81.146 36.403,80.904 36.89,80.658 C37.095,80.554 37.3,80.453 37.505,80.349 C37.577,80.312 37.646,80.265 37.717,80.226 C38.206,79.966 38.682,79.675 39.145,79.354 C39.413,79.168 39.676,78.973 39.935,78.766 C40.393,78.401 40.843,78.003 41.281,77.569 C41.53,77.32 41.774,77.047 42.018,76.775 C42.228,76.539 42.443,76.318 42.65,76.064 C42.874,75.791 43.081,75.512 43.276,75.234 C43.519,74.884 43.739,74.531 43.945,74.175 C44.379,73.419 44.727,72.645 45.007,71.859 C45.208,71.296 45.374,70.726 45.51,70.149 C45.843,68.736 46.003,67.289 46.065,65.832 C46.115,64.606 46.1,63.373 46.069,62.147 C46.059,61.763 46.048,61.381 46.037,60.999 L46.037,60.999 Z M26.012,84.585 L25.484,82.496 C25.452,80.632 25.439,78.85 25.769,77.115 L27.477,83.856 L26.012,84.585 L26.012,84.585 Z M28.308,83.44 L26.251,75.324 C26.545,74.476 26.887,73.67 27.291,72.922 L29.771,82.708 C29.284,82.951 28.798,83.197 28.308,83.44 L28.308,83.44 Z M30.604,82.29 L27.95,71.814 C28.299,71.288 28.689,70.8 29.101,70.332 L31.959,81.611 C31.508,81.838 31.057,82.065 30.604,82.29 L30.604,82.29 Z M32.791,81.196 L29.836,69.542 C30.26,69.132 30.718,68.755 31.196,68.396 L34.256,80.46 C33.767,80.706 33.279,80.95 32.791,81.196 L32.791,81.196 Z M35.086,80.046 L31.988,67.826 C32.389,67.566 32.807,67.322 33.242,67.097 C33.304,67.065 33.367,67.034 33.43,67.002 L36.549,79.313 C36.062,79.559 35.574,79.8 35.086,80.046 L35.086,80.046 Z M37.372,78.861 L34.258,66.578 C34.744,66.327 35.232,66.08 35.72,65.833 L38.785,77.933 C38.328,78.279 37.856,78.588 37.372,78.861 L37.372,78.861 Z M39.567,77.312 L36.55,65.409 C37.039,65.161 37.522,64.914 38.011,64.67 L40.886,76.01 C40.456,76.481 40.019,76.919 39.567,77.312 L39.567,77.312 Z M41.615,75.188 L38.844,64.255 C39.335,64.011 39.822,63.769 40.309,63.526 L42.817,73.42 C42.476,74.021 42.083,74.611 41.615,75.188 L41.615,75.188 Z M43.438,72.172 L41.14,63.111 C41.318,63.024 41.5,62.932 41.676,62.845 L42.606,62.383 L44.335,69.208 C44.139,70.223 43.851,71.211 43.438,72.172 L43.438,72.172 Z M43.437,61.969 L44.692,61.346 C44.746,63.203 44.789,65.021 44.656,66.783 L43.437,61.969 L43.437,61.969 Z" id="Shape"></path>
        </g>
    </g>
</svg>